<?xml version="1.0" encoding="UTF-8"?>
<svg xmlns="http://www.w3.org/2000/svg" xmlns:xlink="http://www.w3.org/1999/xlink" width="213.64pt" height="397.85pt" viewBox="0 0 213.64 397.85" version="1.2">
<defs>
<clipPath id="clip1">
  <path d="M 0 0.261719 L 213.28125 0.261719 L 213.28125 397.441406 L 0 397.441406 Z M 0 0.261719 "/>
</clipPath>
<clipPath id="clip2">
  <path d="M 185 176 L 213.28125 176 L 213.28125 236 L 185 236 Z M 185 176 "/>
</clipPath>
<clipPath id="clip3">
  <path d="M 27 123 L 173 123 L 173 397.441406 L 27 397.441406 Z M 27 123 "/>
</clipPath>
<clipPath id="clip4">
  <path d="M 152 285 L 175 285 L 175 397.441406 L 152 397.441406 Z M 152 285 "/>
</clipPath>
</defs>
<g id="surface1">
<g clip-path="url(#clip1)" clip-rule="nonzero">
<path style="fill:none;stroke-width:10;stroke-linecap:butt;stroke-linejoin:miter;stroke:rgb(13.729858%,12.159729%,12.548828%);stroke-opacity:1;stroke-miterlimit:4;" d="M 2068.401429 2437.646198 C 2008.535094 2437.646198 1770.987043 2437.646198 1770.987043 2437.646198 L 1722.97659 2463.196993 C 1745.318863 2463.196993 1922.374526 2463.196993 1960.876796 2463.196993 C 2001.961536 2463.196993 1995.114079 2498.099458 1995.114079 2498.099458 L 1995.114079 2642.287329 L 1795.833528 2704.266593 L 1744.340655 2736.899615 L 1721.411457 2736.899615 L 1721.567971 3973.511146 L 1254.884458 3973.511146 L 1254.884458 2906.090485 L 321.087021 2906.090485 L 279.924025 2736.899615 L 46.484448 2736.899615 C 46.484448 2736.899615 6.886585 2739.599469 6.886585 2703.053615 C 6.886585 2666.468633 6.886585 2498.099458 6.886585 2498.099458 C 6.886585 2498.099458 0.0391283 2463.196993 41.162996 2463.196993 C 79.391368 2463.196993 254.13846 2463.196993 278.398021 2463.196993 L 238.134976 2436.824503 L 5.399709 2436.824503 L 5.399709 1396.911054 L 238.134976 1396.911054 L 279.924025 1369.521227 L 279.924025 1369.286457 L 44.997572 1369.286457 C 44.997572 1369.286457 5.399709 1371.947183 5.399709 1335.401329 C 5.399709 1298.855475 5.399709 1130.4863 5.399709 1130.4863 C 5.399709 1130.4863 -1.447748 1095.544707 39.636992 1095.544707 C 80.565218 1095.544707 277.967609 1095.544707 279.845769 1095.544707 L 224.400934 1040.88244 L 5.438837 1040.88244 L 5.438837 28.163175 L 238.134976 28.163175 L 279.924025 4.999207 L 1720.628891 4.999207 L 1762.41794 29.102254 L 1995.153207 29.102254 L 1995.153207 1041.821519 L 1776.151982 1041.821519 L 1721.254944 1096.17076 L 1721.254944 1096.522915 L 1744.536296 1096.522915 L 1796.02917 1129.155937 L 1995.309721 1191.096073 L 1995.309721 1335.283944 C 1995.309721 1335.283944 2002.157177 1370.225537 1961.072438 1370.225537 C 1921.044163 1370.225537 1731.232667 1370.225537 1721.254944 1370.225537 L 1721.254944 1370.812462 L 1770.987043 1397.263209 L 2068.401429 1397.263209 C 2068.401429 1397.263209 2131.398029 1404.071537 2131.398029 1455.955694 C 2131.398029 1507.83985 2131.398029 2380.166691 2131.398029 2380.166691 C 2131.398029 2380.166691 2128.306892 2437.646198 2068.401429 2437.646198 Z M 2068.401429 2437.646198 " transform="matrix(0.0998318,0,0,-0.0998318,-0.000000000000004663,397.440486)"/>
</g>
<g clip-path="url(#clip2)" clip-rule="nonzero">
<path style="fill:none;stroke-width:10;stroke-linecap:butt;stroke-linejoin:miter;stroke:rgb(13.729858%,12.159729%,12.548828%);stroke-opacity:1;stroke-miterlimit:4;" d="M 2077.322687 1918.256834 C 2077.322687 1876.937324 2009.082891 1713.615703 2009.082891 1713.615703 C 1993.744588 1684.778129 1987.562313 1677.852415 1961.03331 1677.852415 C 1934.504306 1677.852415 1912.983728 1699.999046 1912.983728 1727.310616 L 1912.983728 2107.324892 C 1912.983728 2134.636462 1934.504306 2156.743965 1961.03331 2156.743965 C 1987.562313 2156.743965 2001.726766 2143.244693 2009.082891 2120.980677 C 2009.082891 2120.980677 2077.322687 1959.576343 2077.322687 1918.256834 Z M 2077.322687 1918.256834 " transform="matrix(0.0998318,0,0,-0.0998318,-0.000000000000004663,397.440486)"/>
</g>
<path style="fill:none;stroke-width:5;stroke-linecap:butt;stroke-linejoin:miter;stroke:rgb(13.729858%,12.159729%,12.548828%);stroke-opacity:1;stroke-dasharray:30;stroke-miterlimit:4;" d="M 1858.086691 2437.646198 L 1858.086691 1397.263209 " transform="matrix(0.0998318,0,0,-0.0998318,-0.000000000000004663,397.440486)"/>
<g clip-path="url(#clip3)" clip-rule="nonzero">
<path style="fill:none;stroke-width:5;stroke-linecap:butt;stroke-linejoin:miter;stroke:rgb(13.729858%,12.159729%,12.548828%);stroke-opacity:1;stroke-dasharray:30;stroke-miterlimit:4;" d="M 1721.411457 4.999207 L 1721.411457 2736.899615 L 279.924025 2736.899615 L 279.924025 4.999207 " transform="matrix(0.0998318,0,0,-0.0998318,-0.000000000000004663,397.440486)"/>
</g>
<path style="fill:none;stroke-width:5;stroke-linecap:butt;stroke-linejoin:miter;stroke:rgb(13.729858%,12.159729%,12.548828%);stroke-opacity:1;stroke-dasharray:30;stroke-miterlimit:4;" d="M 279.924025 2464.644741 L 1725.285161 2464.644741 " transform="matrix(0.0998318,0,0,-0.0998318,-0.000000000000004663,397.440486)"/>
<path style="fill:none;stroke-width:5;stroke-linecap:butt;stroke-linejoin:miter;stroke:rgb(13.729858%,12.159729%,12.548828%);stroke-opacity:1;stroke-dasharray:30;stroke-miterlimit:4;" d="M 282.232596 1366.117063 L 1718.868116 1366.117063 " transform="matrix(0.0998318,0,0,-0.0998318,-0.000000000000004663,397.440486)"/>
<path style="fill:none;stroke-width:5;stroke-linecap:butt;stroke-linejoin:miter;stroke:rgb(13.729858%,12.159729%,12.548828%);stroke-opacity:1;stroke-dasharray:30;stroke-miterlimit:4;" d="M 282.232596 1091.123207 L 1601.052735 1091.123207 " transform="matrix(0.0998318,0,0,-0.0998318,-0.000000000000004663,397.440486)"/>
<path style="fill:none;stroke-width:5;stroke-linecap:butt;stroke-linejoin:miter;stroke:rgb(13.729858%,12.159729%,12.548828%);stroke-opacity:1;stroke-dasharray:30;stroke-miterlimit:4;" d="M 1254.884458 3810.033011 L 1721.528842 3810.033011 " transform="matrix(0.0998318,0,0,-0.0998318,-0.000000000000004663,397.440486)"/>
<g clip-path="url(#clip4)" clip-rule="nonzero">
<path style="fill:none;stroke-width:5;stroke-linecap:butt;stroke-linejoin:miter;stroke:rgb(13.729858%,12.159729%,12.548828%);stroke-opacity:1;stroke-dasharray:50,10;stroke-miterlimit:4;" d="M 1714.994412 1096.522915 C 1714.994412 1096.522915 1556.642088 1114.208917 1556.642088 1014.783848 L 1556.642088 86.660018 C 1556.642088 86.660018 1564.389496 4.999207 1624.216702 4.999207 " transform="matrix(0.0998318,0,0,-0.0998318,-0.000000000000004663,397.440486)"/>
</g>
</g>
</svg>
